<?xml version="1.0" encoding="iso-8859-1"?>
<!-- Generator: Adobe Illustrator 19.0.0, SVG Export Plug-In . SVG Version: 6.00 Build 0)  -->
<svg version="1.1" id="Layer_1" xmlns="http://www.w3.org/2000/svg" x="0px"
     y="0px"
     viewBox="0 0 512 512" style="enable-background:new 0 0 512 512;" xml:space="preserve">
<g>
	<g>
		<g>
			<path d="M458.666,42.67h-53.33V32c0-17.645-14.356-32-32.002-32c-17.644,0-31.999,14.355-31.999,32v10.67H170.664V32
				c0-17.645-14.354-32-31.999-32s-32,14.355-32,32v10.67H53.334c-5.892,0-10.667,4.776-10.667,10.667v447.995
				c0,5.89,4.776,10.667,10.667,10.667h405.332c5.891,0,10.667-4.778,10.667-10.667V53.337
				C469.333,47.446,464.557,42.67,458.666,42.67z M362.67,53.337V32c0-5.882,4.784-10.665,10.666-10.665
				c5.881,0,10.665,4.783,10.665,10.665v21.337V74.67c0,0.735-0.075,1.452-0.218,2.146c-0.996,4.855-5.303,8.517-10.45,8.517
				c-5.881,0-10.664-4.783-10.664-10.663V53.337z M128,53.337V32c0-5.882,4.783-10.665,10.667-10.665
				c5.88,0,10.662,4.783,10.662,10.665v21.337V74.67c0,1.469-0.299,2.871-0.838,4.146c-1.621,3.825-5.415,6.517-9.826,6.517
				C132.783,85.333,128,80.55,128,74.67V53.337z M64.001,64.005h42.663V74.67c0,2.756,0.35,5.434,1.009,7.988
				c3.557,13.791,16.103,24.01,30.991,24.01h0.002c17.643,0,31.997-14.355,31.997-31.998V64.005h170.67V74.67
				c0,17.643,14.355,31.998,32.001,31.998c17.645,0,32-14.355,32-31.998V64.005h42.662v63.994H64.001V64.005z M447.999,490.665
				H64.001v0v-21.328h68.657c5.891,0,10.667-4.778,10.667-10.667c0-5.892-4.777-10.667-10.667-10.667H64.001V149.334h383.997
				V490.665z"
                  style="stroke: none; stroke-width: 1; stroke-dasharray: none; stroke-linecap: butt; stroke-linejoin: miter; stroke-miterlimit: 10; fill: rgb(5, 224, 240); fill-rule: nonzero; opacity: 1;"/>
            <path d="M141.432,249.712c1.736,0,4.342-0.868,6.37-2.896l10.134-12.742v160.764c0,6.661,7.528,10.134,15.347,10.134
				c7.531,0,15.349-3.473,15.349-10.134v-191.41c-0.001-6.371-7.24-10.134-13.612-10.134c-3.474,0-5.792,1.159-7.818,3.185
				l-30.115,28.907c-3.765,2.608-6.08,7.53-6.08,11.874C131.007,243.34,135.349,249.712,141.432,249.712z"
                  style="stroke: none; stroke-width: 1; stroke-dasharray: none; stroke-linecap: butt; stroke-linejoin: miter; stroke-miterlimit: 10; fill: rgb(5, 224, 240); fill-rule: nonzero; opacity: 1;"/>
            <path d="M316.134,406.711c36.486,0,64.866-16.506,64.866-59.652v-3.475c-0.001-29.827-13.321-46.913-33.303-54.154
				c16.216-6.082,27.221-20.556,27.221-45.174c0-37.065-24.904-50.962-58.784-50.962c-33.881,0-58.784,13.896-58.784,50.962
				c0,24.618,11.005,39.092,26.931,45.174c-19.98,7.24-33.301,24.327-33.301,54.154v3.475
				C250.98,390.206,279.647,406.711,316.134,406.711z M316.134,218.774c18.245,0,28.959,8.398,28.959,28.958
				c0,20.85-10.714,29.248-28.959,29.248c-18.242,0-28.958-8.398-28.958-29.248C287.175,227.173,297.892,218.774,316.134,218.774z
				 M281.674,338.66c0-24.904,13.032-36.197,34.46-36.197c21.428,0,34.17,11.293,34.17,36.197v5.213
				c0,25.191-12.451,37.353-34.17,37.353c-21.139,0-34.46-11.58-34.46-37.353V338.66z"
                  style="stroke: none; stroke-width: 1; stroke-dasharray: none; stroke-linecap: butt; stroke-linejoin: miter; stroke-miterlimit: 10; fill: rgb(5, 224, 240); fill-rule: nonzero; opacity: 1;"/>
            <path d="M163.556,448.006h-0.254c-5.892,0-10.667,4.776-10.667,10.667c0,5.889,4.776,10.667,10.667,10.667h0.254
				c5.892,0,10.667-4.778,10.667-10.667C174.224,452.781,169.448,448.006,163.556,448.006z"
                  style="stroke: none; stroke-width: 1; stroke-dasharray: none; stroke-linecap: butt; stroke-linejoin: miter; stroke-miterlimit: 10; fill: rgb(5, 224, 240); fill-rule: nonzero; opacity: 1;"/>
		</g>
	</g>
</g>
    <g>
</g>
    <g>
</g>
    <g>
</g>
    <g>
</g>
    <g>
</g>
    <g>
</g>
    <g>
</g>
    <g>
</g>
    <g>
</g>
    <g>
</g>
    <g>
</g>
    <g>
</g>
    <g>
</g>
    <g>
</g>
    <g>
</g>
</svg>
