<svg xmlns="http://www.w3.org/2000/svg" version="1.1" width="256"
     height="256" viewBox="0 0 256 256" xml:space="preserve">

<defs>
</defs>
    <g style="stroke: none; stroke-width: 0; stroke-dasharray: none; stroke-linecap: butt; stroke-linejoin: miter; stroke-miterlimit: 10; fill: none; fill-rule: nonzero; opacity: 1;"
       transform="translate(1.4065934065934016 1.4065934065934016) scale(2.81 2.81)">
	<path d="M 80.651 52.59 L 46.179 18.116 c -0.281 -0.281 -0.663 -0.439 -1.061 -0.439 s -0.779 0.158 -1.061 0.439 L 9.584 52.59 c -0.974 0.973 -1.51 2.268 -1.51 3.645 s 0.536 2.672 1.51 3.646 c 1.005 1.005 2.325 1.507 3.645 1.507 c 1.32 0 2.64 -0.502 3.645 -1.507 l 0.68 -0.68 v 29.3 c 0 0.828 0.671 1.5 1.5 1.5 H 36.61 h 17.016 h 17.557 c 0.828 0 1.5 -0.672 1.5 -1.5 V 59.2 l 0.679 0.679 c 2.01 2.01 5.28 2.012 7.29 0 C 82.661 57.869 82.661 54.6 80.651 52.59 z M 38.11 87 V 64.775 h 14.016 V 87 H 38.11 z M 69.683 87 H 55.126 V 63.275 c 0 -0.828 -0.672 -1.5 -1.5 -1.5 H 36.61 c -0.829 0 -1.5 0.672 -1.5 1.5 V 87 H 20.554 V 56.2 l 24.564 -24.564 L 69.683 56.2 V 87 z M 78.53 57.758 c -0.814 0.815 -2.233 0.813 -3.048 0 L 46.179 28.454 c -0.563 -0.563 -1.559 -0.563 -2.121 0 L 14.753 57.759 c -0.84 0.841 -2.208 0.838 -3.048 -0.001 c -0.407 -0.407 -0.631 -0.948 -0.631 -1.523 s 0.224 -1.116 0.631 -1.523 l 33.413 -33.413 L 78.53 54.711 C 79.37 55.551 79.37 56.918 78.53 57.758 z"
          style="stroke: none; stroke-width: 1; stroke-dasharray: none; stroke-linecap: butt; stroke-linejoin: miter; stroke-miterlimit: 10; fill: rgb(5, 224, 240); fill-rule: nonzero; opacity: 1;"
          transform=" matrix(1 0 0 1 0 0) " stroke-linecap="round"/>
        <path d="M 42.89 77.388 h -0.494 c -0.829 0 -1.5 -0.672 -1.5 -1.5 s 0.671 -1.5 1.5 -1.5 h 0.494 c 0.829 0 1.5 0.672 1.5 1.5 S 43.718 77.388 42.89 77.388 z"
              style="stroke: none; stroke-width: 1; stroke-dasharray: none; stroke-linecap: butt; stroke-linejoin: miter; stroke-miterlimit: 10; fill: rgb(5, 224, 240); fill-rule: nonzero; opacity: 1;"
              transform=" matrix(1 0 0 1 0 0) " stroke-linecap="round"/>
        <path d="M 87.643 28.447 H 63.305 c -0.828 0 -1.5 -0.671 -1.5 -1.5 s 0.672 -1.5 1.5 -1.5 h 23.117 c 0.06 -0.417 0.09 -0.83 0.09 -1.237 c 0 -5.03 -4.092 -9.123 -9.122 -9.123 c -1.28 0 -2.528 0.267 -3.709 0.794 c -0.631 0.282 -1.369 0.096 -1.794 -0.447 c -2.128 -2.726 -5.321 -4.29 -8.761 -4.29 c -3.583 0 -6.968 1.746 -9.053 4.67 c -0.481 0.674 -1.418 0.831 -2.093 0.35 s -0.831 -1.417 -0.351 -2.092 c 2.647 -3.712 6.945 -5.928 11.496 -5.928 c 3.991 0 7.721 1.656 10.396 4.58 c 1.248 -0.423 2.544 -0.637 3.868 -0.637 c 6.685 0 12.122 5.438 12.122 12.123 c 0 1.029 -0.142 2.08 -0.42 3.124 C 88.917 27.99 88.322 28.447 87.643 28.447 z"
              style="stroke: none; stroke-width: 1; stroke-dasharray: none; stroke-linecap: butt; stroke-linejoin: miter; stroke-miterlimit: 10; fill: rgb(5, 224, 240); fill-rule: nonzero; opacity: 1;"
              transform=" matrix(1 0 0 1 0 0) " stroke-linecap="round"/>
        <path d="M 14.433 41.348 H 2.013 c -0.792 0 -1.448 -0.616 -1.497 -1.406 l -0.007 -0.104 c -0.011 -0.16 -0.021 -0.32 -0.021 -0.483 c 0 -4.966 3.899 -9.038 8.797 -9.315 c 2.091 -5.349 7.345 -8.995 13.154 -8.995 c 2.577 0 5.1 0.704 7.295 2.036 c 0.708 0.43 0.934 1.352 0.504 2.061 c -0.429 0.708 -1.351 0.935 -2.061 0.504 c -1.726 -1.047 -3.71 -1.601 -5.739 -1.601 c -4.876 0 -9.257 3.263 -10.651 7.936 c -0.2 0.671 -0.838 1.12 -1.537 1.067 c -0.002 0 -0.102 -0.007 -0.104 -0.007 c -0.109 -0.008 -0.218 -0.017 -0.329 -0.017 c -3.147 0 -5.766 2.31 -6.25 5.323 h 10.865 c 0.829 0 1.5 0.671 1.5 1.5 S 15.262 41.348 14.433 41.348 z"
              style="stroke: none; stroke-width: 1; stroke-dasharray: none; stroke-linecap: butt; stroke-linejoin: miter; stroke-miterlimit: 10; fill: rgb(5, 224, 240); fill-rule: nonzero; opacity: 1;"
              transform=" matrix(1 0 0 1 0 0) " stroke-linecap="round"/>
        <path d="M 30.687 14.358 c -3.958 0 -7.179 -3.22 -7.179 -7.179 S 26.729 0 30.687 0 s 7.179 3.221 7.179 7.179 S 34.646 14.358 30.687 14.358 z M 30.687 3 c -2.304 0 -4.179 1.875 -4.179 4.179 s 1.875 4.179 4.179 4.179 s 4.179 -1.875 4.179 -4.179 S 32.991 3 30.687 3 z"
              style="stroke: none; stroke-width: 1; stroke-dasharray: none; stroke-linecap: butt; stroke-linejoin: miter; stroke-miterlimit: 10; fill: rgb(5, 224, 240); fill-rule: nonzero; opacity: 1;"
              transform=" matrix(1 0 0 1 0 0) " stroke-linecap="round"/>
</g>
</svg>